<?xml version="1.0" encoding="UTF-8" standalone="no"?>
<!DOCTYPE svg PUBLIC "-//W3C//DTD SVG 1.1//EN"
 "http://www.w3.org/Graphics/SVG/1.1/DTD/svg11.dtd">
<!-- Generated by graphviz version 2.43.0 (0)
 -->
<!-- Title: %3 Pages: 1 -->
<svg width="394pt" height="325pt"
 viewBox="0.00 0.00 393.50 325.00" xmlns="http://www.w3.org/2000/svg" xmlns:xlink="http://www.w3.org/1999/xlink">
<g id="graph0" class="graph" transform="scale(1 1) rotate(0) translate(4 321)">
<title>%3</title>
<polygon fill="white" stroke="transparent" points="-4,4 -4,-321 389.5,-321 389.5,4 -4,4"/>
<!-- 1 -->
<g id="node1" class="node">
<title>1</title>
<polygon fill="#ef6403" stroke="#ef6403" points="123,-317 73,-317 73,-276 123,-276 123,-317"/>
<text text-anchor="middle" x="98" y="-305" font-family="Arial" font-size="10.00" fill="#ffffff">main</text>
<text text-anchor="middle" x="98" y="-294" font-family="Arial" font-size="10.00" fill="#ffffff">89.66%</text>
<text text-anchor="middle" x="98" y="-283" font-family="Arial" font-size="10.00" fill="#ffffff">(0.00%)</text>
</g>
<!-- 2 -->
<g id="node2" class="node">
<title>2</title>
<polygon fill="#ef6403" stroke="#ef6403" points="192,-236 4,-236 4,-184 192,-184 192,-236"/>
<text text-anchor="middle" x="98" y="-224" font-family="Arial" font-size="10.00" fill="#ffffff">train(double*, double*, double*, double*)</text>
<text text-anchor="middle" x="98" y="-213" font-family="Arial" font-size="10.00" fill="#ffffff">89.66%</text>
<text text-anchor="middle" x="98" y="-202" font-family="Arial" font-size="10.00" fill="#ffffff">(1.72%)</text>
<text text-anchor="middle" x="98" y="-191" font-family="Arial" font-size="10.00" fill="#ffffff">1×</text>
</g>
<!-- 1&#45;&gt;2 -->
<g id="edge1" class="edge">
<title>1&#45;&gt;2</title>
<path fill="none" stroke="#ef6403" stroke-width="3.59" d="M98,-275.9C98,-266.96 98,-256.1 98,-245.84"/>
<polygon fill="#ef6403" stroke="#ef6403" stroke-width="3.59" points="101.33,-245.77 98,-236.27 94.68,-245.77 101.33,-245.77"/>
<text text-anchor="middle" x="115" y="-259" font-family="Arial" font-size="10.00" fill="#ef6403">89.66%</text>
<text text-anchor="middle" x="115" y="-248" font-family="Arial" font-size="10.00" fill="#ef6403">1×</text>
</g>
<!-- 3 -->
<g id="node3" class="node">
<title>3</title>
<polygon fill="#ed7403" stroke="#ed7403" points="157,-144 39,-144 39,-92 157,-92 157,-144"/>
<text text-anchor="middle" x="98" y="-132" font-family="Arial" font-size="10.00" fill="#ffffff">bubbleSort(double*, int)</text>
<text text-anchor="middle" x="98" y="-121" font-family="Arial" font-size="10.00" fill="#ffffff">87.93%</text>
<text text-anchor="middle" x="98" y="-110" font-family="Arial" font-size="10.00" fill="#ffffff">(44.83%)</text>
<text text-anchor="middle" x="98" y="-99" font-family="Arial" font-size="10.00" fill="#ffffff">1×</text>
</g>
<!-- 2&#45;&gt;3 -->
<g id="edge2" class="edge">
<title>2&#45;&gt;3</title>
<path fill="none" stroke="#ed7403" stroke-width="3.52" d="M98,-183.93C98,-174.65 98,-163.94 98,-153.94"/>
<polygon fill="#ed7403" stroke="#ed7403" stroke-width="3.52" points="101.29,-153.65 98,-144.25 94.71,-153.65 101.29,-153.65"/>
<text text-anchor="middle" x="115" y="-167" font-family="Arial" font-size="10.00" fill="#ed7403">87.93%</text>
<text text-anchor="middle" x="115" y="-156" font-family="Arial" font-size="10.00" fill="#ed7403">1×</text>
</g>
<!-- 4 -->
<g id="node4" class="node">
<title>4</title>
<polygon fill="#0c8e92" stroke="#0c8e92" points="86,-52 0,-52 0,0 86,0 86,-52"/>
<text text-anchor="middle" x="43" y="-40" font-family="Arial" font-size="10.00" fill="#ffffff">std::abs(double)</text>
<text text-anchor="middle" x="43" y="-29" font-family="Arial" font-size="10.00" fill="#ffffff">24.14%</text>
<text text-anchor="middle" x="43" y="-18" font-family="Arial" font-size="10.00" fill="#ffffff">(24.14%)</text>
<text text-anchor="middle" x="43" y="-7" font-family="Arial" font-size="10.00" fill="#ffffff">307984950×</text>
</g>
<!-- 3&#45;&gt;4 -->
<g id="edge3" class="edge">
<title>3&#45;&gt;4</title>
<path fill="none" stroke="#0c8e92" stroke-width="0.97" d="M82.68,-91.93C76,-81 68.12,-68.11 61.15,-56.7"/>
<polygon fill="#0c8e92" stroke="#0c8e92" stroke-width="0.97" points="62.45,-55.53 58.43,-52.25 59.52,-57.32 62.45,-55.53"/>
<text text-anchor="middle" x="105" y="-75" font-family="Arial" font-size="10.00" fill="#0c8e92">24.14%</text>
<text text-anchor="middle" x="105" y="-64" font-family="Arial" font-size="10.00" fill="#0c8e92">307984950×</text>
</g>
<!-- 5 -->
<g id="node5" class="node">
<title>5</title>
<polygon fill="#0c6d8b" stroke="#0c6d8b" points="211,-52 95,-52 95,0 211,0 211,-52"/>
<text text-anchor="middle" x="153" y="-40" font-family="Arial" font-size="10.00" fill="#ffffff">swap(double*, double*)</text>
<text text-anchor="middle" x="153" y="-29" font-family="Arial" font-size="10.00" fill="#ffffff">18.97%</text>
<text text-anchor="middle" x="153" y="-18" font-family="Arial" font-size="10.00" fill="#ffffff">(18.97%)</text>
<text text-anchor="middle" x="153" y="-7" font-family="Arial" font-size="10.00" fill="#ffffff">64557373×</text>
</g>
<!-- 3&#45;&gt;5 -->
<g id="edge4" class="edge">
<title>3&#45;&gt;5</title>
<path fill="none" stroke="#0c6d8b" stroke-width="0.76" d="M127.32,-91.82C129.77,-89 132.05,-86.04 134,-83 139.15,-74.98 143.06,-65.42 145.95,-56.48"/>
<polygon fill="#0c6d8b" stroke="#0c6d8b" stroke-width="0.76" points="147.46,-56.81 147.3,-52.15 144.52,-55.9 147.46,-56.81"/>
<text text-anchor="middle" x="169.5" y="-75" font-family="Arial" font-size="10.00" fill="#0c6d8b">18.97%</text>
<text text-anchor="middle" x="169.5" y="-64" font-family="Arial" font-size="10.00" fill="#0c6d8b">64557373×</text>
</g>
<!-- 6 -->
<g id="node6" class="node">
<title>6</title>
<polygon fill="#0d347e" stroke="#0d347e" points="312.5,-236 201.5,-236 201.5,-184 312.5,-184 312.5,-236"/>
<text text-anchor="middle" x="257" y="-224" font-family="Arial" font-size="10.00" fill="#ffffff">_GLOBAL__sub_I_b0</text>
<text text-anchor="middle" x="257" y="-213" font-family="Arial" font-size="10.00" fill="#ffffff">8.62%</text>
<text text-anchor="middle" x="257" y="-202" font-family="Arial" font-size="10.00" fill="#ffffff">(8.62%)</text>
<text text-anchor="middle" x="257" y="-191" font-family="Arial" font-size="10.00" fill="#ffffff">1×</text>
</g>
<!-- 7 -->
<g id="node7" class="node">
<title>7</title>
<polygon fill="#0d347e" stroke="#0d347e" points="297.5,-317 216.5,-317 216.5,-276 297.5,-276 297.5,-317"/>
<text text-anchor="middle" x="257" y="-305" font-family="Arial" font-size="10.00" fill="#ffffff">__libc_csu_init</text>
<text text-anchor="middle" x="257" y="-294" font-family="Arial" font-size="10.00" fill="#ffffff">8.62%</text>
<text text-anchor="middle" x="257" y="-283" font-family="Arial" font-size="10.00" fill="#ffffff">(0.00%)</text>
</g>
<!-- 7&#45;&gt;6 -->
<g id="edge5" class="edge">
<title>7&#45;&gt;6</title>
<path fill="none" stroke="#0d347e" stroke-width="0.5" d="M257,-275.9C257,-265.21 257,-251.77 257,-239.9"/>
<polygon fill="#0d347e" stroke="#0d347e" stroke-width="0.5" points="258.23,-239.77 257,-236.27 255.78,-239.77 258.23,-239.77"/>
<text text-anchor="middle" x="271" y="-259" font-family="Arial" font-size="10.00" fill="#0d347e">8.62%</text>
<text text-anchor="middle" x="271" y="-248" font-family="Arial" font-size="10.00" fill="#0d347e">1×</text>
</g>
<!-- 8 -->
<g id="node8" class="node">
<title>8</title>
<polygon fill="#0d1475" stroke="#0d1475" points="385.5,-317 306.5,-317 306.5,-276 385.5,-276 385.5,-317"/>
<text text-anchor="middle" x="346" y="-305" font-family="Arial" font-size="10.00" fill="#ffffff">frame_dummy</text>
<text text-anchor="middle" x="346" y="-294" font-family="Arial" font-size="10.00" fill="#ffffff">1.72%</text>
<text text-anchor="middle" x="346" y="-283" font-family="Arial" font-size="10.00" fill="#ffffff">(1.72%)</text>
</g>
</g>
</svg>
